<svg xmlns="http://www.w3.org/2000/svg" width="56" height="56" viewBox="0 0 56 56">
  <g fill="none" fill-rule="evenodd">
    <rect width="56" height="56" fill="#E5458D" rx="4"/>
    <g transform="translate(10.889 6.533)">
      <path fill="#EF95C8" d="M12.8200995,42.6222222 C9.19141283,42.6222222 6.28807728,41.3511443 4.04444444,38.9262023 C12.4377938,37.8700166 20.8375792,37.1686235 29.2444444,36.7111111 L28.5242422,41.8792371 L21.3769264,41.8792371 L21.8107212,38.7818905 C20.2403069,40.2130348 18.7702962,41.2106136 17.4084124,41.7739967 C16.0471721,42.3354892 14.5173055,42.6222222 12.8200995,42.6222222"/>
      <path fill="#FFF" d="M22.544831,30.9717183 C21.646968,32.688599 20.5319112,33.9460787 19.2035393,34.750683 C17.8751674,35.552677 16.3192592,35.9553054 14.5371077,35.9553054 C12.3916739,35.9553054 10.6347323,35.2387965 9.26886866,33.815567 C7.9055906,32.3910324 7.22621401,30.5051392 7.22621401,28.1683282 C7.22621401,25.1300171 8.12213785,22.6509484 9.92562091,20.7324273 C11.7271647,18.8145586 13.9197864,17.8559506 16.5009004,17.8559506 C18.7219641,17.8559506 20.5073477,18.5757223 21.8641616,20.0113504 C23.2190363,21.4469785 23.8964737,23.3504908 23.8964737,25.7147093 C23.8964737,27.5027188 23.4465726,29.2561427 22.544831,30.9717183 M26.9714446,0.385009351 L24.8719059,16.0790346 C23.8660925,14.45808 22.5946046,13.22605 21.0503318,12.379682 C19.5086447,11.5300512 17.8221618,11.1084986 15.9947616,11.1084986 C13.2740231,11.1084986 10.6664064,11.858288 8.17514345,13.3467733 C5.68258765,14.8378688 3.69423142,16.9123514 2.21783167,19.5663057 C0.735614236,22.2307009 0,25.0334385 0,27.9738658 C0,31.8304849 1.15384131,35.2139993 3.46475598,38.1204936 L3.60761252,38.2666667 C12.1874084,37.1410037 20.7717292,36.3951297 29.3638069,35.9154994 L34.2222222,0 C31.8033571,0.107019548 29.3851385,0.236878634 26.9714446,0.385009351"/>
    </g>
  </g>
</svg>
